<svg xmlns="http://www.w3.org/2000/svg" width="1024" height="871" viewBox="0 0 1024 871">
<!-- SVG created with Arrow, by QuiverAI (https://quiver.ai) -->
  <g id="andres-mata-wordmark" fill="#252b28" fill-rule="evenodd">
    <g id="andres">
      <path id="capital-a" d="m45 387c12-2 16-9 23-25l41-102h5l46 108c6 14 9 18 21 19v3h-54v-3c11-1 15-5 9-19l-12-30h-41l-11 29c-5 14 0 18 11 20v3h-38zm41-56h35l-18-40z" fill="#292D2B" />
      <path id="lowercase-n" d="m174 307c11-1 22-4 32-7v15c9-10 17-14 29-14 18 0 25 12 25 30v42c0 11 2 13 13 14v3h-44v-3c10-1 11-4 11-14v-42c0-13-4-19-14-19-7 0-14 3-19 10v52c0 10 2 12 12 13v3h-44v-3c11-1 12-4 12-14v-48c0-11-1-13-13-14z" fill="#292D2B" />
      <path id="lowercase-d" d="m319 263c11-2 22-5 32-8v112c0 9 2 13 12 14v4l-28 7-3-8c-7 5-15 8-25 8-23 0-36-18-36-42 0-29 20-49 44-49 6 0 12 1 17 4v-24c0-11-2-14-13-14zm13 52c-5-5-11-8-17-8-16 0-25 15-25 38 0 24 11 39 28 39 5 0 10-1 14-5z" fill="#292D2B" />
      <path id="lowercase-r" d="m354 307c11-1 23-4 33-7v16c9-11 15-15 23-15s14 4 14 11c0 6-4 10-9 10-6 0-8-6-14-8-5-2-10 3-13 9v50c0 11 3 13 17 14v3h-49v-3c11-1 13-4 13-14v-48c0-11-3-14-15-14z" fill="#292D2B" />
      <path id="lowercase-e" d="m496 338h-57c-2 23 8 42 27 42 12 0 21-6 27-16l4 3c-7 17-20 25-37 25-25 0-41-17-41-43 0-27 17-48 41-48 23 0 36 14 36 37zm-56-7h36c0-16-6-24-16-24s-18 8-20 24z" fill="#292D2B" />
      <path id="lowercase-s" d="m555 330c-4-16-13-23-23-23-9 0-14 5-14 12 0 8 7 12 21 18 18 8 25 15 25 28 0 17-14 27-32 27-10 0-18-3-29-6v-29h4c5 19 14 29 26 29 9 0 16-6 16-14 0-9-7-13-21-20-17-8-24-15-24-27 0-15 12-24 29-24 9 0 17 3 25 5v24z" fill="#292D2B" />
    </g>
    <g id="mata">
      <path id="capital-m" d="m610 261h34l39 95 39-95h34v4c-13 1-14 8-14 22l3 77c1 18 3 22 15 23v3h-52v-3c14-1 16-6 15-23l-3-78-43 104h-5l-43-105-3 76c-1 18 2 24 15 26v3h-37v-3c12-2 15-8 16-26l4-79c0-12-3-16-14-17z" fill="#292D2B" />
      <path id="first-lowercase-a" d="m764 324c0-14 16-23 36-23 21 0 30 9 30 26v46c0 8 3 11 12 6l3 4c-6 6-12 9-19 9-9 0-13-5-15-11-9 8-18 11-27 11-14 0-22-9-22-21 0-17 16-24 49-35v-12c0-12-4-17-13-17s-15 5-16 13c0 8-2 13-9 13-6 0-9-4-9-9zm47 18c-22 7-30 15-30 25s6 15 14 15c6 0 11-3 16-7z" fill="#292D2B" />
      <path id="lowercase-t" d="m840 305c12-4 22-14 27-25h4v23h21v7h-21v58c0 11 3 14 10 14 5 0 9-2 13-5l3 4c-7 8-14 11-23 11-15 0-24-7-24-23v-59h-10z" fill="#292D2B" />
      <path id="final-lowercase-a" d="m897 324c0-14 16-23 37-23 20 0 30 9 30 26v46c0 8 3 11 12 6l3 4c-6 6-12 9-19 9-9 0-14-5-15-11-9 8-18 11-27 11-14 0-22-9-22-21 0-17 16-24 49-35v-12c0-12-4-17-13-17s-15 5-16 13c0 8-2 13-9 13-6 0-10-4-10-9zm48 18c-22 7-30 15-30 25s6 15 14 15c6 0 11-3 16-7z" fill="#292D2B" />
    </g>
  </g>
  <g id="arquitectura-subtitle" fill="#252b28" fill-rule="evenodd" aria-label="ARQUITECTURA">
    <path id="subtitle-a-first" d="m194 479 12-29h5l12 29h-4.4l-3.3-8h-13.6l-3.2 8zm9-11.5h11l-5.5-13.5z" fill="#292D2B" />
    <path id="subtitle-r-first" d="m255 450h11c7.2 0 11 3.3 11 8.7 0 4.5-2.4 7.3-6.5 8.3l7.5 12h-5l-6.8-11.3h-7.2v11.3h-4zm4 3.6v10.6h6.5c5 0 7.3-1.7 7.3-5.4 0-3.5-2.3-5.2-7.3-5.2z" fill="#292D2B" />
    <path id="subtitle-q" d="m325 449.7c9.6 0 15 6.1 15 14.6 0 5.2-2.2 9.2-5.7 11.6h7.7v3.1h-17c-9.6 0-15.5-5.5-15.5-14.7 0-8.7 5.9-14.6 15.5-14.6zm0 3.6c-7 0-11.2 4.4-11.2 11 0 6.9 4.2 11.2 11.2 11.2 6.6 0 10.8-4.3 10.8-11.2 0-6.6-4.2-11-10.8-11z" fill="#292D2B" />
    <path id="subtitle-u-first" d="m374 450h4v17.6c0 5.3 2.6 8.1 8 8.1 5.3 0 7.8-2.8 7.8-8.1v-17.6h4v17.8c0 7.4-4.2 11.7-11.8 11.7-7.7 0-12-4.3-12-11.7z" fill="#292D2B" />
    <path id="subtitle-i" d="m434 450h4v29h-4z" fill="#292D2B" />
    <path id="subtitle-t-first" d="m470.5 450h23v3.7h-9.5v25.3h-4v-25.3h-9.5z" fill="#292D2B" />
    <path id="subtitle-e" d="m527 450h19.5v3.6h-15.5v8.7h14v3.6h-14v9.5h16v3.6h-20z" fill="#292D2B" />
    <path id="subtitle-c" d="m604 454-2.7 2.8c-2.3-2.4-4.9-3.5-8.3-3.5-6.2 0-10.5 4.5-10.5 11.2 0 6.8 4.3 11.3 10.5 11.3 3.6 0 6.3-1.4 8.7-3.8l2.7 2.6c-3 3.4-6.7 4.9-11.6 4.9-8.8 0-14.6-6.1-14.6-15 0-8.7 6-14.9 14.8-14.9 4.5 0 8.1 1.4 11 4.4z" fill="#292D2B" />
    <path id="subtitle-t-second" d="m635 450h23v3.7h-9.5v25.3h-4v-25.3h-9.5z" fill="#292D2B" />
    <path id="subtitle-u-second" d="m690 450h4v17.6c0 5.3 2.6 8.1 8 8.1 5.3 0 7.8-2.8 7.8-8.1v-17.6h4v17.8c0 7.4-4.2 11.7-11.8 11.7-7.7 0-12-4.3-12-11.7z" fill="#292D2B" />
    <path id="subtitle-r-second" d="m750 450h11c7.2 0 11 3.3 11 8.7 0 4.5-2.4 7.3-6.5 8.3l7.5 12h-5l-6.8-11.3h-7.2v11.3h-4zm4 3.6v10.6h6.5c5 0 7.3-1.7 7.3-5.4 0-3.5-2.3-5.2-7.3-5.2z" fill="#292D2B" />
    <path id="subtitle-a-last" d="m801 479 12-29h5l12 29h-4.4l-3.3-8h-13.6l-3.2 8zm9-11.5h11l-5.5-13.5z" fill="#292D2B" />
  </g>
</svg>