<svg xmlns="http://www.w3.org/2000/svg" width="2752" height="1536" viewBox="0 0 2752 1536"><g fill="none" stroke="#242424" stroke-linecap="round"><path stroke-width="2" d="M1940 988 Q1973 988 1986 986"/><path stroke-width="5" d="M1940 1001 Q2012 1002 2090 1000"/><path stroke-width="2.5" d="M1940 1008 Q2016 1012 2090 1007"/><path stroke-width="2.4" d="M2015 1020 Q1939 1038 1986 1039 Q2037 1030 2090 1019"/></g><g fill="none" stroke="#292929" stroke-width="2.7" stroke-linecap="round"><path d="M773 588 C748 568 826 553 804 530 S769 495 812 437 S828 422 840 408"/><path d="M779 591 C768 570 840 557 821 534 S791 502 836 444 S865 420 871 411"/></g><g transform="translate(1942 880)" fill="none" stroke="#242424" stroke-width="3.5" stroke-linecap="round" stroke-linejoin="round">
 <path d="M-4 -8 C-12 -6 -10 6 -3 8 C6 7 10 -2 5 -9 C2 -12 -3 -11 -4 -8 M-3 -4 L0 -7"/>
 <path d="M0 21 Q-3 45 -2 65 L1 83 M2 23 L5 61 M-1 25 Q-11 45 -17 62 M4 25 Q11 47 15 66 M1 81 Q-9 106 -18 135 M1 81 Q9 109 21 135 M-5 65 L1 78 L6 67"/>
 </g><g transform="translate(1995 882)" fill="none" stroke="#242424" stroke-width="3.5" stroke-linecap="round" stroke-linejoin="round">
 <path d="M-4 -8 C-12 -6 -10 6 -3 8 C6 7 10 -2 5 -9 C2 -12 -3 -11 -4 -8 M-3 -4 L0 -7"/>
 <path d="M0 21 Q-3 45 -2 65 L1 83 M2 23 L5 61 M-1 25 Q-17 45 -23 62 M4 25 Q17 47 21 66 M1 81 Q-9 106 -18 135 M1 81 Q9 109 21 135 M-5 65 L1 78 L6 67"/>
 </g></svg>